<svg xmlns="http://www.w3.org/2000/svg" viewBox="0 0 1440 320"><path fill="#fff" fill-opacity="1" d="M0,32L13.3,37.3C26.7,43,53,53,80,96C106.7,139,133,213,160,218.7C186.7,224,213,160,240,154.7C266.7,149,293,203,320,197.3C346.7,192,373,128,400,106.7C426.7,85,453,107,480,106.7C506.7,107,533,85,560,106.7C586.7,128,613,192,640,197.3C666.7,203,693,149,720,128C746.7,107,773,117,800,106.7C826.7,96,853,64,880,85.3C906.7,107,933,181,960,192C986.7,203,1013,149,1040,144C1066.7,139,1093,181,1120,208C1146.7,235,1173,245,1200,234.7C1226.7,224,1253,192,1280,176C1306.7,160,1333,160,1360,138.7C1386.7,117,1413,75,1427,53.3L1440,32L1440,320L1426.7,320C1413.3,320,1387,320,1360,320C1333.3,320,1307,320,1280,320C1253.3,320,1227,320,1200,320C1173.3,320,1147,320,1120,320C1093.3,320,1067,320,1040,320C1013.3,320,987,320,960,320C933.3,320,907,320,880,320C853.3,320,827,320,800,320C773.3,320,747,320,720,320C693.3,320,667,320,640,320C613.3,320,587,320,560,320C533.3,320,507,320,480,320C453.3,320,427,320,400,320C373.3,320,347,320,320,320C293.3,320,267,320,240,320C213.3,320,187,320,160,320C133.3,320,107,320,80,320C53.3,320,27,320,13,320L0,320Z" style="user-select: auto;"></path></svg>